<?xml version="1.0" encoding="utf-8"?>
<!-- Generated by IcoMoon.io -->
<!DOCTYPE svg PUBLIC "-//W3C//DTD SVG 1.1//EN" "http://www.w3.org/Graphics/SVG/1.1/DTD/svg11.dtd">
<svg version="1.1" xmlns="http://www.w3.org/2000/svg" xmlns:xlink="http://www.w3.org/1999/xlink" width="28" height="28" viewBox="0 0 28 28">
<path d="M24.398 14.068c0.067-0.304 0.102-0.62 0.102-0.943 0-2.416-1.959-4.375-4.375-4.375-0.389 0-0.766 0.051-1.124 0.146-0.678-2.115-2.66-3.646-5.001-3.646-2.389 0-4.404 1.595-5.040 3.778-0.622-0.181-1.279-0.278-1.96-0.278-3.866 0-7 3.134-7 7s3.134 7 7 7h16.625c2.416 0 4.375-1.959 4.375-4.375 0-2.152-1.555-3.942-3.602-4.307zM11.375 21l-4.375-4.375 1.75-1.75 2.625 2.625 6.125-6.125 1.75 1.75-7.875 7.875z"></path>
</svg>
