<?xml version="1.0" encoding="utf-8"?>
<!-- Generated by IcoMoon.io -->
<!DOCTYPE svg PUBLIC "-//W3C//DTD SVG 1.1//EN" "http://www.w3.org/Graphics/SVG/1.1/DTD/svg11.dtd">
<svg version="1.1" xmlns="http://www.w3.org/2000/svg" xmlns:xlink="http://www.w3.org/1999/xlink" width="28" height="28" viewBox="0 0 28 28">
<path d="M17.463 14.207q0 2.528-1.057 4.503t-3.014 3.087-4.485 1.112q-1.811 0-3.463-0.705t-2.844-1.896-1.896-2.844-0.705-3.463 0.705-3.463 1.896-2.844 2.844-1.896 3.463-0.705q3.476 0 5.967 2.333l-2.418 2.321q-1.422-1.374-3.548-1.374-1.495 0-2.765 0.754t-2.011 2.048-0.741 2.826 0.741 2.826 2.011 2.048 2.765 0.754q1.009 0 1.853-0.279t1.391-0.698 0.954-0.954 0.596-1.009 0.261-0.899h-5.056v-3.063h8.41q0.145 0.765 0.145 1.482zM28 12.724v2.552h-2.54v2.54h-2.552v-2.54h-2.54v-2.552h2.54v-2.54h2.552v2.54h2.54z"></path>
</svg>
