<?xml version="1.0" encoding="utf-8"?>
<!-- Generated by IcoMoon.io -->
<!DOCTYPE svg PUBLIC "-//W3C//DTD SVG 1.1//EN" "http://www.w3.org/Graphics/SVG/1.1/DTD/svg11.dtd">
<svg version="1.1" xmlns="http://www.w3.org/2000/svg" xmlns:xlink="http://www.w3.org/1999/xlink" width="28" height="28" viewBox="0 0 28 28">
<path d="M6.067 19.6q-0.962 0-1.648-0.685t-0.685-1.648v-10.267q0-0.962 0.685-1.648t1.648-0.685h15.867q0.962 0 1.648 0.685t0.685 1.648v10.267q0 0.962-0.685 1.648t-1.648 0.685h-15.867zM5.6 7v10.267q0 0.189 0.138 0.329t0.329 0.138h15.867q0.189 0 0.329-0.138t0.138-0.329v-10.267q0-0.189-0.138-0.329t-0.329-0.138h-15.867q-0.189 0-0.329 0.138t-0.138 0.329zM25.667 20.533h2.333v1.4q0 0.583-0.685 0.991t-1.648 0.409h-23.333q-0.962 0-1.648-0.409t-0.685-0.991v-1.4h25.667zM15.167 21.933q0.233 0 0.233-0.233t-0.233-0.233h-2.333q-0.233 0-0.233 0.233t0.233 0.233h2.333z"></path>
</svg>
