<?xml version="1.0" encoding="utf-8"?>
<!-- Generated by IcoMoon.io -->
<!DOCTYPE svg PUBLIC "-//W3C//DTD SVG 1.1//EN" "http://www.w3.org/Graphics/SVG/1.1/DTD/svg11.dtd">
<svg version="1.1" xmlns="http://www.w3.org/2000/svg" xmlns:xlink="http://www.w3.org/1999/xlink" width="32" height="28" viewBox="0 0 32 28">
<path d="M28.25 12.25q0.725 0 1.237 0.513t0.513 1.237-0.513 1.237-1.237 0.513h-0.205l-1.572 9.051q-0.109 0.629-0.602 1.039t-1.121 0.41h-17.5q-0.629 0-1.121-0.41t-0.602-1.039l-1.572-9.051h-0.205q-0.725 0-1.237-0.513t-0.513-1.237 0.513-1.237 1.237-0.513h24.5zM8.63 23.188q0.355-0.027 0.595-0.308t0.212-0.636l-0.438-5.688q-0.027-0.355-0.308-0.595t-0.636-0.212-0.595 0.308-0.212 0.636l0.438 5.688q0.027 0.342 0.28 0.574t0.595 0.232h0.068zM14.25 22.313v-5.688q0-0.355-0.26-0.615t-0.615-0.26-0.615 0.26-0.26 0.615v5.688q0 0.355 0.26 0.615t0.615 0.26 0.615-0.26 0.26-0.615zM19.5 22.313v-5.688q0-0.355-0.26-0.615t-0.615-0.26-0.615 0.26-0.26 0.615v5.688q0 0.355 0.26 0.615t0.615 0.26 0.615-0.26 0.26-0.615zM24.312 22.381l0.438-5.688q0.027-0.355-0.212-0.636t-0.595-0.308-0.636 0.212-0.308 0.595l-0.438 5.688q-0.027 0.355 0.212 0.636t0.595 0.308h0.068q0.342 0 0.595-0.232t0.28-0.574zM8.507 5.742l-1.272 5.633h-1.805l1.381-6.029q0.26-1.203 1.217-1.962t2.188-0.759h2.283q0-0.355 0.26-0.615t0.615-0.26h5.25q0.355 0 0.615 0.26t0.26 0.615h2.283q1.23 0 2.188 0.759t1.217 1.962l1.381 6.029h-1.805l-1.272-5.633q-0.15-0.602-0.622-0.984t-1.087-0.383h-2.283q0 0.355-0.26 0.615t-0.615 0.26h-5.25q-0.355 0-0.615-0.26t-0.26-0.615h-2.283q-0.615 0-1.087 0.383t-0.622 0.984z"></path>
</svg>
