<?xml version="1.0" encoding="utf-8"?>
<!-- Generated by IcoMoon.io -->
<!DOCTYPE svg PUBLIC "-//W3C//DTD SVG 1.1//EN" "http://www.w3.org/Graphics/SVG/1.1/DTD/svg11.dtd">
<svg version="1.1" xmlns="http://www.w3.org/2000/svg" xmlns:xlink="http://www.w3.org/1999/xlink" width="28" height="28" viewBox="0 0 28 28">
<path d="M23.331 5.486c-0.284-0.286-0.747-0.286-1.030 0l-10.849 10.798c-0.284 0.288-0.748 0.288-1.031 0l-4.754-4.841c-0.141-0.143-0.325-0.214-0.51-0.215-0.187-0.001-0.377 0.070-0.52 0.215l-2.101 1.888c-0.14 0.143-0.215 0.323-0.215 0.51s0.076 0.385 0.216 0.528l4.793 5.030c0.283 0.287 0.748 0.753 1.031 1.038l2.061 2.077c0.284 0.284 0.746 0.284 1.031 0l13.939-13.914c0.284-0.285 0.284-0.754 0-1.040l-2.062-2.076z"></path>
</svg>
