<?xml version="1.0" encoding="utf-8"?>
<!-- Generated by IcoMoon.io -->
<!DOCTYPE svg PUBLIC "-//W3C//DTD SVG 1.1//EN" "http://www.w3.org/Graphics/SVG/1.1/DTD/svg11.dtd">
<svg version="1.1" xmlns="http://www.w3.org/2000/svg" xmlns:xlink="http://www.w3.org/1999/xlink" width="28" height="28" viewBox="0 0 28 28">
<path d="M5.301 5.981l0.6 0.6-2.457 2.457 1.915 1.915 2.468-2.468 0.561 0.561-2.468 2.469 1.89 1.889 5.614-5.614-6.835-6.795-5.594 5.594 1.85 1.851 2.457-2.458zM20.212 14.577l-5.614 5.615 1.889 1.889 2.469-2.468 0.561 0.561-2.468 2.468 1.915 1.915 2.456-2.457 0.6 0.6-2.456 2.457 1.849 1.85 5.595-5.595-6.795-6.835zM26.094 7.395c0.683-0.684 0.689-1.789 0.011-2.468l-3.073-3.072c-0.678-0.678-1.784-0.675-2.468 0.010l-1.899 1.899 5.53 5.53 1.899-1.899zM2.973 22.699l2.295 2.295 4.623-1.642-5.276-5.276-1.642 4.623zM18.069 4.325l-13.024 13.025 5.573 5.573 13.025-13.025-5.574-5.573zM7.575 17.339l10.483-10.483 0.611 0.611-10.484 10.484-0.61-0.612zM8.796 18.561l10.482-10.483 0.611 0.611-10.483 10.483-0.61-0.61zM10.018 19.782l10.483-10.483 0.61 0.611-10.482 10.483-0.611-0.611zM1.71 26.259l2.683-0.977-1.705-1.705-0.977 2.683z"></path>
</svg>
