<?xml version="1.0" encoding="utf-8"?>
<!-- Generated by IcoMoon.io -->
<!DOCTYPE svg PUBLIC "-//W3C//DTD SVG 1.1//EN" "http://www.w3.org/Graphics/SVG/1.1/DTD/svg11.dtd">
<svg version="1.1" xmlns="http://www.w3.org/2000/svg" xmlns:xlink="http://www.w3.org/1999/xlink" width="28" height="28" viewBox="0 0 28 28">
<path d="M24.5 12.25h0.438c0.722 0 1.313-0.591 1.313-1.313v-4.375c0-0.722-0.591-1.313-1.313-1.313h-0.438v-5.25h-3.5v5.25h-0.438c-0.722 0-1.313 0.591-1.313 1.313v4.375c0 0.722 0.591 1.313 1.313 1.313h0.438v15.75h3.5v-15.75zM21 7h3.5v3.5h-3.5v-3.5zM16.188 22.75c0.722 0 1.313-0.591 1.313-1.313v-4.375c0-0.722-0.591-1.313-1.313-1.313h-0.438v-15.75h-3.5v15.75h-0.438c-0.722 0-1.313 0.591-1.313 1.313v4.375c0 0.722 0.591 1.313 1.313 1.313h0.438v5.25h3.5v-5.25h0.438zM12.25 17.5h3.5v3.5h-3.5v-3.5zM7.438 12.25c0.722 0 1.313-0.591 1.313-1.313v-4.375c0-0.722-0.591-1.313-1.313-1.313h-0.438v-5.25h-3.5v5.25h-0.438c-0.722 0-1.313 0.591-1.313 1.313v4.375c0 0.722 0.591 1.313 1.313 1.313h0.438v15.75h3.5v-15.75h0.438zM3.5 7h3.5v3.5h-3.5v-3.5z"></path>
</svg>
