<?xml version="1.0" encoding="utf-8"?>
<!-- Generated by IcoMoon.io -->
<!DOCTYPE svg PUBLIC "-//W3C//DTD SVG 1.1//EN" "http://www.w3.org/Graphics/SVG/1.1/DTD/svg11.dtd">
<svg version="1.1" xmlns="http://www.w3.org/2000/svg" xmlns:xlink="http://www.w3.org/1999/xlink" width="28" height="28" viewBox="0 0 28 28">
<path d="M14 10.5q1.422 0 2.46 1.040t1.040 2.46-1.040 2.46-2.46 1.040-2.46-1.040-1.040-2.46 1.040-2.46 2.46-1.040zM14 19.852q2.407 0 4.129-1.723t1.723-4.129-1.723-4.129-4.129-1.723-4.129 1.723-1.723 4.129 1.723 4.129 4.129 1.723zM14 5.25q4.32 0 7.82 2.407t5.032 6.344q-1.532 3.937-5.032 6.344t-7.82 2.407-7.82-2.407-5.032-6.344q1.532-3.938 5.032-6.344t7.82-2.407z"></path>
</svg>
