<?xml version="1.0" encoding="utf-8"?>
<!-- Generated by IcoMoon.io -->
<!DOCTYPE svg PUBLIC "-//W3C//DTD SVG 1.1//EN" "http://www.w3.org/Graphics/SVG/1.1/DTD/svg11.dtd">
<svg version="1.1" xmlns="http://www.w3.org/2000/svg" xmlns:xlink="http://www.w3.org/1999/xlink" width="28" height="28" viewBox="0 0 28 28">
<path d="M17.5 10.5l-5.25 8.75-3.474-2.534-0.026-0.091-0.207-0.080 0.161 0.118-5.205 4.337v1.75h21v-1.75l-2.625-7.875-4.375-2.625zM7.875 11.375c1.449 0 2.625-1.175 2.625-2.625s-1.176-2.625-2.625-2.625-2.625 1.175-2.625 2.625 1.176 2.625 2.625 2.625zM27.125 1.75h-26.25c-0.483 0-0.875 0.392-0.875 0.875v22.75c0 0.484 0.392 0.875 0.875 0.875h26.25c0.484 0 0.875-0.391 0.875-0.875v-22.75c0-0.483-0.391-0.875-0.875-0.875zM26.25 23.625c0 0.484-0.391 0.875-0.875 0.875h-22.75c-0.483 0-0.875-0.391-0.875-0.875v-19.25c0-0.483 0.392-0.875 0.875-0.875h22.75c0.484 0 0.875 0.392 0.875 0.875v19.25z"></path>
</svg>
