<?xml version="1.0" encoding="utf-8"?>
<!-- Generated by IcoMoon.io -->
<!DOCTYPE svg PUBLIC "-//W3C//DTD SVG 1.1//EN" "http://www.w3.org/Graphics/SVG/1.1/DTD/svg11.dtd">
<svg version="1.1" xmlns="http://www.w3.org/2000/svg" xmlns:xlink="http://www.w3.org/1999/xlink" width="28" height="28" viewBox="0 0 28 28">
<path d="M21.912 16.338v-10.926c0-1.080-0.875-1.957-1.957-1.957h-17.125c-1.081-0.001-1.957 0.876-1.957 1.957v10.926c0 1.081 0.876 1.956 1.957 1.956h3.263v4.495l4.991-4.495h8.87c1.082 0 1.957-0.876 1.957-1.956zM25.169 7.751h-2.448c0 0 0 8.726 0 9.545s-1.064 1.874-1.884 1.874-9.577 0.048-9.577 0.048c0 1.081 0.876 1.738 1.957 1.738h3.77l4.919 4.464-0.006-4.464h3.269c1.081 0 1.956-0.657 1.956-1.738v-9.566c0-1.080-0.875-1.902-1.956-1.902z"></path>
</svg>
