<?xml version="1.0" encoding="utf-8"?>
<!-- Generated by IcoMoon.io -->
<!DOCTYPE svg PUBLIC "-//W3C//DTD SVG 1.1//EN" "http://www.w3.org/Graphics/SVG/1.1/DTD/svg11.dtd">
<svg version="1.1" xmlns="http://www.w3.org/2000/svg" xmlns:xlink="http://www.w3.org/1999/xlink" width="28" height="28" viewBox="0 0 28 28">
<path d="M14 7c-3.866 0-7 3.134-7 7s3.134 7 7 7 7-3.134 7-7-3.134-7-7-7zM14 19.25c-2.899 0-5.25-2.351-5.25-5.25s2.351-5.25 5.25-5.25 5.25 2.351 5.25 5.25-2.351 5.25-5.25 5.25zM14 0c-7.732 0-14 6.268-14 14s6.268 14 14 14 14-6.268 14-14-6.268-14-14-14zM14 24.5c-5.799 0-10.5-4.701-10.5-10.5s4.701-10.5 10.5-10.5 10.5 4.701 10.5 10.5-4.701 10.5-10.5 10.5zM14 11.375c-1.45 0-2.625 1.175-2.625 2.625s1.175 2.625 2.625 2.625 2.625-1.175 2.625-2.625-1.175-2.625-2.625-2.625z"></path>
</svg>
