<?xml version="1.0" encoding="utf-8"?>
<!-- Generated by IcoMoon.io -->
<!DOCTYPE svg PUBLIC "-//W3C//DTD SVG 1.1//EN" "http://www.w3.org/Graphics/SVG/1.1/DTD/svg11.dtd">
<svg version="1.1" xmlns="http://www.w3.org/2000/svg" xmlns:xlink="http://www.w3.org/1999/xlink" width="28" height="28" viewBox="0 0 28 28">
<path d="M8.648 14q-2.362 0.073-3.865 1.867h-1.954q-1.196 0-2.012-0.591t-0.817-1.729q0-5.148 1.808-5.148 0.088 0 0.635 0.306t1.421 0.62 1.735 0.314q0.977 0 1.939-0.335-0.073 0.539-0.073 0.962 0 2.027 1.182 3.733zM24.267 23.289q0 1.75-1.065 2.764t-2.829 1.014h-12.746q-1.765 0-2.829-1.014t-1.065-2.764q0-0.773 0.051-1.509t0.204-1.589 0.386-1.582 0.627-1.421 0.904-1.182 1.247-0.78 1.626-0.292q0.146 0 0.627 0.314t1.065 0.7 1.561 0.7 1.968 0.314 1.968-0.314 1.561-0.7 1.065-0.7 0.627-0.314q0.889 0 1.626 0.292t1.247 0.78 0.904 1.182 0.627 1.421 0.386 1.582 0.204 1.589 0.051 1.509zM9.333 4.667q0 1.546-1.094 2.639t-2.639 1.094-2.639-1.094-1.094-2.639 1.094-2.639 2.639-1.094 2.639 1.094 1.094 2.639zM19.6 10.267q0 2.318-1.641 3.959t-3.959 1.641-3.959-1.641-1.641-3.959 1.641-3.959 3.959-1.641 3.959 1.641 1.641 3.959zM28 13.548q0 1.138-0.817 1.729t-2.012 0.591h-1.954q-1.502-1.794-3.865-1.867 1.182-1.706 1.182-3.733 0-0.423-0.073-0.962 0.962 0.335 1.939 0.335 0.861 0 1.735-0.314t1.421-0.62 0.635-0.306q1.808 0 1.808 5.148zM26.133 4.667q0 1.546-1.094 2.639t-2.639 1.094-2.639-1.094-1.094-2.639 1.094-2.639 2.639-1.094 2.639 1.094 1.094 2.639z"></path>
</svg>
