<svg xmlns="http://www.w3.org/2000/svg" width="32" height="28" viewBox="0 0 32 28"><path d="M28.25 12.25q.725 0 1.237.513T30 14t-.513 1.237-1.237.513h-.205l-1.572 9.051q-.109.629-.602 1.039t-1.121.41H7.25q-.629 0-1.121-.41t-.602-1.039L3.955 15.75H3.75q-.725 0-1.237-.513T2 14t.513-1.237 1.237-.513h24.5zM8.63 23.188q.355-.027.595-.308t.212-.636l-.438-5.688q-.027-.355-.308-.595t-.636-.212-.595.308-.212.636l.438 5.688q.027.342.28.574t.595.232h.068zm5.62-.875v-5.688q0-.355-.26-.615t-.615-.26-.615.26-.26.615v5.688q0 .355.26.615t.615.26.615-.26.26-.615zm5.25 0v-5.688q0-.355-.26-.615t-.615-.26-.615.26-.26.615v5.688q0 .355.26.615t.615.26.615-.26.26-.615zm4.812.068l.438-5.688q.027-.355-.212-.636t-.595-.308-.636.212-.308.595l-.438 5.688q-.027.355.212.636t.595.308h.068q.342 0 .595-.232t.28-.574zM8.507 5.742l-1.272 5.633H5.43l1.381-6.029q.26-1.203 1.217-1.962t2.188-.759h2.283q0-.355.26-.615t.615-.26h5.25q.355 0 .615.26t.26.615h2.283q1.23 0 2.188.759t1.217 1.962l1.381 6.029h-1.805l-1.272-5.633q-.15-.602-.622-.984t-1.087-.383h-2.283q0 .355-.26.615t-.615.26h-5.25q-.355 0-.615-.26t-.26-.615h-2.283q-.615 0-1.087.383t-.622.984z"/></svg>