<svg xmlns="http://www.w3.org/2000/svg" width="28" height="28" viewBox="0 0 28 28"><path d="M5.301 5.981l.6.6-2.457 2.457 1.915 1.915 2.468-2.468.561.561-2.468 2.469 1.89 1.889 5.614-5.614L6.589.995.995 6.589l1.85 1.851 2.457-2.458zm14.911 8.596l-5.614 5.615 1.889 1.889 2.469-2.468.561.561-2.468 2.468 1.915 1.915L21.42 22.1l.6.6-2.456 2.457 1.849 1.85 5.595-5.595-6.795-6.835zm5.882-7.182a1.747 1.747 0 0 0 .011-2.468l-3.073-3.072a1.745 1.745 0 0 0-2.468.01l-1.899 1.899 5.53 5.53 1.899-1.899zM2.973 22.699l2.295 2.295 4.623-1.642-5.276-5.276-1.642 4.623zM18.069 4.325L5.045 17.35l5.573 5.573L23.643 9.898l-5.574-5.573zM7.575 17.339L18.058 6.856l.611.611L8.185 17.951l-.61-.612zm1.221 1.222L19.278 8.078l.611.611L9.406 19.172l-.61-.61zm1.222 1.221L20.501 9.299l.61.611-10.482 10.483-.611-.611zM1.71 26.259l2.683-.977-1.705-1.705-.977 2.683z"/></svg>