<svg xmlns="http://www.w3.org/2000/svg" width="28" height="28" viewBox="0 0 28 28"><path d="M6.067 19.6q-.962 0-1.648-.685t-.685-1.648V7q0-.962.685-1.648t1.648-.685h15.867q.962 0 1.648.685T24.267 7v10.267q0 .962-.685 1.648t-1.648.685H6.067zM5.6 7v10.267q0 .189.138.329t.329.138h15.867q.189 0 .329-.138t.138-.329V7q0-.189-.138-.329t-.329-.138H6.067q-.189 0-.329.138T5.6 7zm20.067 13.533H28v1.4q0 .583-.685.991t-1.648.409H2.334q-.962 0-1.648-.409t-.685-.991v-1.4h25.667zm-10.5 1.4q.233 0 .233-.233t-.233-.233h-2.333q-.233 0-.233.233t.233.233h2.333z"/></svg>