<svg xmlns="http://www.w3.org/2000/svg" width="28" height="28" viewBox="0 0 28 28"><path d="M8.648 14q-2.362.073-3.865 1.867H2.829q-1.196 0-2.012-.591T0 13.547q0-5.148 1.808-5.148.088 0 .635.306t1.421.62 1.735.314q.977 0 1.939-.335-.073.539-.073.962 0 2.027 1.182 3.733zm15.619 9.289q0 1.75-1.065 2.764t-2.829 1.014H7.627q-1.765 0-2.829-1.014t-1.065-2.764q0-.773.051-1.509t.204-1.589.386-1.582.627-1.421.904-1.182 1.247-.78 1.626-.292q.146 0 .627.314t1.065.7 1.561.7 1.968.314 1.968-.314 1.561-.7 1.065-.7.627-.314q.889 0 1.626.292t1.247.78.904 1.182.627 1.421.386 1.582.204 1.589.051 1.509zM9.333 4.667q0 1.546-1.094 2.639T5.6 8.4 2.961 7.306 1.867 4.667t1.094-2.639T5.6.934t2.639 1.094 1.094 2.639zm10.267 5.6q0 2.318-1.641 3.959T14 15.867t-3.959-1.641T8.4 10.267t1.641-3.959T14 4.667t3.959 1.641 1.641 3.959zm8.4 3.281q0 1.138-.817 1.729t-2.012.591h-1.954q-1.502-1.794-3.865-1.867 1.182-1.706 1.182-3.733 0-.423-.073-.962.962.335 1.939.335.861 0 1.735-.314t1.421-.62.635-.306q1.808 0 1.808 5.148zm-1.867-8.881q0 1.546-1.094 2.639T22.4 8.4t-2.639-1.094-1.094-2.639 1.094-2.639T22.4.934t2.639 1.094 1.094 2.639z"/></svg>